# xmcd CD database file
#
# Track frame offsets:
#	150
#	13265
#	19188
#	32149
#	42014
#	64911
#	67291
#	87324
#	96692
#	104778
#	109929
#	115873
#	128607
#	134627
#	156842
#	167691
#	181945
#	192815
#	209129
#	220162
#	230537
#	245345
#	255661
#
# Disc length: 3598 seconds
#
# Revision: 0
# Processed by: cddbd v1.5.2PL0 Copyright (c) Steve Scherf et al.
# Submitted via: CDex 1.70beta2
#
DISCID=5e0e0c17
DTITLE=Tobias Schößler - Rand-Erscheinungen
DYEAR=2010
DGENRE=Jazz
TTITLE0=Wüstenschritte
TTITLE1=A piece of Childhood
TTITLE2=What's to say?
TTITLE3=Später Beat
TTITLE4=The Spirits of Solitude
TTITLE5=One Minute-Dance
TTITLE6=Piano-Pop
TTITLE7=Herzrasen (Walzer Nr.1)
TTITLE8=Nostalgic Waltz
TTITLE9=Waltz-Fever
TTITLE10=Slow Waltz
TTITLE11=You always go away
TTITLE12=Sudden Extasy ?
TTITLE13=Impossible Meditation
TTITLE14=Pitty, lucky Guy
TTITLE15=The Joy of falling leaves
TTITLE16=Desireless
TTITLE17=A Winter Song
TTITLE18=Serious Game
TTITLE19=Sculptures
TTITLE20=Nice Rotation
TTITLE21=Choral
TTITLE22=Final Hymnus
EXTD=YEAR: 2010
EXTT0=
EXTT1=
EXTT2=
EXTT3=
EXTT4=
EXTT5=
EXTT6=
EXTT7=
EXTT8=
EXTT9=
EXTT10=
EXTT11=
EXTT12=
EXTT13=
EXTT14=
EXTT15=
EXTT16=
EXTT17=
EXTT18=
EXTT19=
EXTT20=
EXTT21=
EXTT22=
PLAYORDER=
